<?xml version="1.0" standalone="no"?>
<!DOCTYPE svg PUBLIC "-//W3C//DTD SVG 1.1//EN"
  "http://www.w3.org/Graphics/SVG/1.1/DTD/svg11.dtd">
<svg version="1.1" xmlns="http://www.w3.org/2000/svg" xmlns:xlink="http://www.w3.org/1999/xlink" width="1144" height="1346" viewBox="-212 -234 1144 1346" id="ccdiagram"><filter id="grayscale"><feColorMatrix type="saturate" values="0"></feColorMatrix></filter><filter id="highlight"><feColorMatrix type="matrix" color-interpolation-filters="sRGB" values="0.20338 0 0 0 0
                0 0.58474 0 0 0
                0 0 0.97033 0 0
                0 0 0 1 0"></feColorMatrix></filter><defs><style type="text/css">@import url('https://fonts.googleapis.com/css2?family=Noto+Sans:ital,wght@0,100..900;1,100..900&amp;family=Roboto+Mono:ital,wght@0,100..700;1,100..700&amp;display=swap');</style></defs><g><rect x="-212" y="-234" width="1144" height="1346" fill="#000000" id="interactionLayer"></rect><g style="pointer-events: none;"><g><pattern id="gridPatternMinor" x="0" y="0" width="90" height="90" patternUnits="userSpaceOnUse"><path d="M -45 45 L 135 45" stroke="#4f4f4f" stroke-width="1"></path><path d="M 45 -45 L 45 135" stroke="#4f4f4f" stroke-width="1"></path></pattern><polygon points="-212 -234, 932 -234, 932 1112, -212 1112" fill="url(#gridPatternMinor)"></polygon></g></g><g pointer-events="auto"></g><g style="pointer-events: none;"><g><pattern id="gridPatternMajor" x="0" y="0" width="90" height="90" patternUnits="userSpaceOnUse"><path d="M 0 0 L 90 0 90 90 0 90 z" stroke="#d5d5d5" stroke-width="1" fill="none"></path></pattern><polygon points="-212 -234, 932 -234, 932 1112, -212 1112" fill="url(#gridPatternMajor)"></polygon></g></g><g pointer-events="auto"></g><g pointer-events="auto"></g><g pointer-events="auto"></g><g pointer-events="auto"></g><g pointer-events="auto"><g><g class="cloud-maps_raptor_node" id="c0ad301f-e278-45a8-9760-4f42fa922f28-0"><g><g><polygon points="-180 -202, 900 -202, 900 1080, -180 1080" stroke="#a991e1" stroke-width="8" fill="none"></polygon></g><svg x="-180" y="-202" overflow="visible"><clipPath id="clip-c0ad301f-e278-45a8-9760-4f42fa922f28-0"><polygon points="45 -45, 1035 -45, 1035 45, 45 45"></polygon></clipPath><rect transform="" x="36.18" y="-49.045" rx="12" ry="12" width="329.8782690429687" height="72.09" fill="#211c2c" opacity="0.8"></rect><g clip-path="url(#clip-c0ad301f-e278-45a8-9760-4f42fa922f28-0)" font-family="Noto Sans" font-weight="bold" font-size="40pt" fill="#a991e1"><text transform="" x="45.225" y="4"><tspan>ca-central-1</tspan></text></g></svg></g></g></g></g><g pointer-events="auto"></g><g pointer-events="auto"><g><g class="cloud-maps_raptor_node" id="1b2bc19f-9cc0-4afb-b169-8fe25cb93059-0"><g><g><polygon points="0 450, 720 450, 720 900, 0 900" stroke="#41c29f" stroke-width="8" fill="none"></polygon></g><svg x="0" y="450" overflow="visible"><clipPath id="clip-1b2bc19f-9cc0-4afb-b169-8fe25cb93059-0"><polygon points="45 -45, 675 -45, 675 45, 45 45"></polygon></clipPath><rect transform="" x="36.18" y="-49.045" rx="12" ry="12" width="109.75120147705078" height="72.09" fill="#0c261f" opacity="0.8"></rect><g clip-path="url(#clip-1b2bc19f-9cc0-4afb-b169-8fe25cb93059-0)" font-family="Noto Sans" font-weight="bold" font-size="40pt" fill="#41c29f"><text transform="" x="45.225" y="4"><tspan>vpc</tspan></text></g></svg></g></g></g></g><g pointer-events="auto"></g><g pointer-events="auto"></g><g pointer-events="auto"></g><g pointer-events="none"></g><g pointer-events="auto"><g id="90a2c2f7-4692-4d84-be95-4e032d6841fb-0-748c75c0-a991-4140-8429-64747c98e8ff"><g cursor="cell"><line x1="720" y1="23" x2="720" y2="23" stroke="red" stroke-width="8" opacity="0"></line><line x1="720" y1="23" x2="720" y2="23" stroke="#ffffff" stroke-width="2" stroke-linecap="round"></line></g></g><g id="4f241b80-2504-4792-9d55-b7e76473e625-d45b00a1-4bcd-490c-a1d3-95a6ca3b1c6a"><g cursor="cell"><line x1="-112" y1="68" x2="-13" y2="68" stroke="red" stroke-width="8" opacity="0"></line><line x1="-112" y1="68" x2="-13" y2="68" stroke="#ffffff" stroke-width="2" stroke-linecap="round"></line><polygon points="0 68, -24 56, -18 68, -24 79, 0 68" stroke-linejoin="round" fill="#ffffff" stroke="#ffffff" stroke-width="1"></polygon></g></g><g id="90a2c2f7-4692-4d84-be95-4e032d6841fb-0-bedf947c-e2bd-4a9c-a80a-dfa28cbeac05"><g cursor="cell"><line x1="734" y1="23" x2="765" y2="23" stroke="red" stroke-width="8" opacity="0"></line><line x1="734" y1="23" x2="765" y2="23" stroke="#ffffff" stroke-width="2" stroke-linecap="round"></line><polygon points="720 23, 744 34, 738 23, 744 11, 720 23" stroke-linejoin="round" fill="#ffffff" stroke="#ffffff" stroke-width="1"></polygon></g></g><g id="55ce44ad-dbe8-44bb-84f3-137430e34f94-0-fcad58fc-5e4d-4bfe-bb47-10bf38f2f31a"><g cursor="cell"><line x1="45" y1="0" x2="90" y2="-22" stroke="red" stroke-width="8" opacity="0"></line><line x1="45" y1="0" x2="90" y2="-22" stroke="#ffffff" stroke-width="2" stroke-linecap="round"></line></g></g><g id="9c434f20-06aa-4be3-99b6-59820a463158-55ce44ad-dbe8-44bb-84f3-137430e34f94-0"><g cursor="cell"><line x1="495" y1="45" x2="103" y2="45" stroke="red" stroke-width="8" opacity="0"></line><line x1="495" y1="45" x2="103" y2="45" stroke="#ffffff" stroke-width="2" stroke-linecap="round"></line><polygon points="90 45, 114 56, 108 45, 114 34, 90 45" stroke-linejoin="round" fill="#ffffff" stroke="#ffffff" stroke-width="1"></polygon></g></g><g id="434572b7-1140-41e8-aa2b-5937dc029f29-9ccdf4b4-3b31-4073-b87b-3bebd3b26b53"><g cursor="cell"><line x1="765" y1="-135" x2="-112" y2="-135" stroke="red" stroke-width="8" opacity="0"></line><line x1="765" y1="-135" x2="-112" y2="-135" stroke="#ffffff" stroke-width="2" stroke-linecap="round"></line></g></g><g id="8a8a85a0-f9e0-4bf3-bb03-b414419bc766-0-55ce44ad-dbe8-44bb-84f3-137430e34f94-0"><g cursor="cell"><line x1="225" y1="630" x2="49" y2="103" stroke="red" stroke-width="8" opacity="0"></line><line x1="225" y1="630" x2="49" y2="103" stroke="#ffffff" stroke-width="2" stroke-linecap="round"></line><polygon points="45 90, 42 117, 51 107, 64 110, 45 90" stroke-linejoin="round" fill="#ffffff" stroke="#ffffff" stroke-width="1"></polygon></g></g><g id="bedf947c-e2bd-4a9c-a80a-dfa28cbeac05-434572b7-1140-41e8-aa2b-5937dc029f29"><g cursor="cell"><line x1="765" y1="23" x2="765" y2="-135" stroke="red" stroke-width="8" opacity="0"></line><line x1="765" y1="23" x2="765" y2="-135" stroke="#ffffff" stroke-width="2" stroke-linecap="round"></line></g></g><g id="9c434f20-06aa-4be3-99b6-59820a463158-1ae9259d-871e-49c3-8aa7-b16121424cbc"><g cursor="cell"><line x1="495" y1="45" x2="495" y2="135" stroke="red" stroke-width="8" opacity="0"></line><line x1="495" y1="45" x2="495" y2="135" stroke="#ffffff" stroke-width="2" stroke-linecap="round"></line></g></g><g id="f34ca921-d9bf-40f2-a32a-c236a3d8ab29-0-9c434f20-06aa-4be3-99b6-59820a463158"><g cursor="cell"><line x1="495" y1="617" x2="495" y2="45" stroke="red" stroke-width="8" opacity="0"></line><line x1="495" y1="617" x2="495" y2="45" stroke="#ffffff" stroke-width="2" stroke-linecap="round"></line><polygon points="495 630, 506 606, 495 612, 484 606, 495 630" stroke-linejoin="round" fill="#ffffff" stroke="#ffffff" stroke-width="1"></polygon></g></g><g id="748c75c0-a991-4140-8429-64747c98e8ff-90a2c2f7-4692-4d84-be95-4e032d6841fb-0"><g cursor="cell"><line x1="720" y1="23" x2="720" y2="23" stroke="red" stroke-width="8" opacity="0"></line><line x1="720" y1="23" x2="720" y2="23" stroke="#ffffff" stroke-width="2" stroke-linecap="round"></line><polygon points="720 23, 720 23, 720 23, 720 23, 720 23" stroke-linejoin="round" fill="#ffffff" stroke="#ffffff" stroke-width="1"></polygon></g></g><g id="fcad58fc-5e4d-4bfe-bb47-10bf38f2f31a-1ef47c3d-1dbc-4cc4-8f70-10df8db2109b"><g cursor="cell"><line x1="90" y1="-22" x2="617" y2="-1" stroke="red" stroke-width="8" opacity="0"></line><line x1="90" y1="-22" x2="617" y2="-1" stroke="#ffffff" stroke-width="2" stroke-linecap="round"></line><polygon points="630 0, 606 -12, 612 -1, 605 10, 630 0" stroke-linejoin="round" fill="#ffffff" stroke="#ffffff" stroke-width="1"></polygon></g></g><g id="9ccdf4b4-3b31-4073-b87b-3bebd3b26b53-4f241b80-2504-4792-9d55-b7e76473e625"><g cursor="cell"><line x1="-112" y1="-135" x2="-112" y2="68" stroke="red" stroke-width="8" opacity="0"></line><line x1="-112" y1="-135" x2="-112" y2="68" stroke="#ffffff" stroke-width="2" stroke-linecap="round"></line></g></g></g><g pointer-events="auto"><g><g class="cloud-maps_raptor_node" id="90a2c2f7-4692-4d84-be95-4e032d6841fb-0"><svg x="630" y="-22" width="90" height="90"><path fill="#3f8624" d="M0 0h90v90H0z"></path><path fill="#ffffff" d="M73.716 48.072c-.348-1.884-2.484-3.216-3.948-4.164-.468-.3-1.752-.78-1.86-1.2a2.832 2.832 0 0 1 .12-.888l1.2-8.628c.348-2.532.684-5.064 1.032-7.596.312-2.328-.804-3.888-2.7-5.196-3.864-2.676-8.904-3.756-13.452-4.5a67.02 67.02 0 0 0-17.256-.564 48 48 0 0 0-15.036 3.6c-2.568 1.2-5.928 3.072-5.508 6.348 1.2 9.744 2.616 19.464 3.924 29.196l1.8 13.356a4.956 4.956 0 0 0 2.952 3.996c3.72 2.016 8.328 2.592 12.48 2.976A61.8 61.8 0 0 0 54 74.076c3.456-.636 9.888-1.68 10.44-6 .684-5.352 1.44-10.704 2.16-16.044l.264-1.632c1.956.468 7.536 1.464 6.852-2.328zM43.26 17.4c7.2 0 15.444.816 21.9 4.368.996.552 3.312 1.788 2.616 3.252-.696 1.464-2.856 2.196-4.176 2.724a37.056 37.056 0 0 1-5.796 1.62 74.748 74.748 0 0 1-25.992.54 32.16 32.16 0 0 1-11.184-3.276c-.864-.492-2.292-1.38-1.896-2.556a3.6 3.6 0 0 1 1.416-1.512 25.008 25.008 0 0 1 8.64-3.492A60.42 60.42 0 0 1 43.26 17.4zm18.816 50.58c-.18 1.404-2.496 2.1-3.6 2.496a35.52 35.52 0 0 1-7.056 1.584 60.864 60.864 0 0 1-16.044 0 26.688 26.688 0 0 1-9.6-2.604 2.4 2.4 0 0 1-1.44-2.076c-1.2-9.516-2.568-19.032-3.852-28.548l-1.392-10.32a27.912 27.912 0 0 0 8.76 3.072 71.544 71.544 0 0 0 9.972 1.308A77.76 77.76 0 0 0 57.492 31.8a29.124 29.124 0 0 0 9.852-3.288L64.8 47.352a144.516 144.516 0 0 1-17.784-7.2 5.124 5.124 0 0 1-.732-.348c-.324-.24-.24-.12-.396-.492-.3-.684-.372-1.2-1.008-1.764a2.7 2.7 0 1 0-1.488 4.8 4.944 4.944 0 0 0 1.2-.36c.468-.144.468-.12.96.108a152.064 152.064 0 0 0 18 7.392c.924.3.912 0 .912.768a13.788 13.788 0 0 1-.228 1.74l-.768 5.724ZM43.56 39.6c0 .324-.456.288-.576.084-.12-.204.576-.54.576-.084ZM67.2 48l.36-2.652c1.2.684 3.24 1.716 3.78 3.084-1.176.48-3.036-.156-4.14-.432Z"></path></svg></g></g><g><g class="cloud-maps_raptor_node" id="55ce44ad-dbe8-44bb-84f3-137430e34f94-0"><svg x="0" y="0" width="90" height="90"><path fill="#3f8624" d="M0 0h90v90H0z"></path><g fill="#ffffff"><path d="M59.364 31.068a3.288 3.288 0 0 0-.108-.468c-1.068-3.264-7.704-4.956-14.256-4.956-6.552 0-13.2 1.692-14.256 4.956a3.288 3.288 0 0 0-.108.468 2.916 2.916 0 0 0 0 .456V58.32c0 3.864 7.2 5.88 14.4 5.88s14.4-2.016 14.4-5.88V31.524a2.916 2.916 0 0 0-.072-.456zm-14.4-3.024c6.864 0 10.968 1.8 11.832 3.024-.888 1.2-4.992 3.012-11.832 3.012-6.84 0-10.944-1.776-11.832-3.012.9-1.224 5.004-3.024 11.868-3.024zm12 30.276c0 1.2-4.236 3.48-12 3.48s-12-2.304-12-3.48V34.008c2.724 1.632 7.38 2.472 12 2.472s9.276-.84 12-2.472z"></path><path d="M30.744 30.6a3.288 3.288 0 0 0-.108.468 3.072 3.072 0 0 1 0-.468zm28.656 0a3.072 3.072 0 0 1 0 .468 3.288 3.288 0 0 0-.108-.468zm-31.548-4.452-1.704 1.704-8.748-8.748V25.8H15v-9.6a1.2 1.2 0 0 1 1.2-1.2h9.6v2.4h-6.696zM75 16.2v9.6h-2.4v-6.696l-8.748 8.748-1.704-1.704 8.748-8.748H64.2V15h9.6a1.2 1.2 0 0 1 1.2 1.2zM19.104 72.6H25.8V75h-9.6a1.2 1.2 0 0 1-1.2-1.2v-9.6h2.4v6.696l8.748-8.748 1.704 1.704zM75 64.2v9.6a1.2 1.2 0 0 1-1.2 1.2h-9.6v-2.4h6.696l-8.748-8.748 1.704-1.704 8.748 8.748V64.2Z"></path></g></svg></g></g><g><g class="cloud-maps_raptor_node" id="8a8a85a0-f9e0-4bf3-bb03-b414419bc766-0"><svg x="180" y="630" width="90" height="90"><path fill="#d86613" d="M80.402 80.402H9.599V9.599h70.803zm-67.137-3.667h63.47v-63.47h-63.47Z"></path><path fill="#d86613" d="M19.719 1h3.666v10.432H19.72zm11.495 0h3.666v10.432h-3.666zm11.513 0h3.667v10.432h-3.667zM54.24 1h3.667v10.432H54.24zm11.514 0h3.666v10.432h-3.666zM19.719 78.57h3.666V89H19.72zm11.495 0h3.666V89h-3.666zm11.513 0h3.667V89h-3.667zm11.513 0h3.667V89H54.24zm11.514 0h3.666V89h-3.666zm12.815-58.41H89v3.666H78.57zm0 11.495H89v3.666H78.57zm0 11.513H89v3.667H78.57zm0 11.513H89v3.667H78.57zm0 11.495H89v3.667H78.57zM1 20.16h10.432v3.666H1zm0 11.495h10.432v3.666H1zm0 11.513h10.432v3.667H1zM1 54.68h10.432v3.667H1zm0 11.495h10.432v3.667H1z"></path><path fill="#d86613" d="M13.265 13.265h63.47v63.47h-63.47z" opacity=".05"></path></svg><svg x="198" y="657" width="54" height="36" style="overflow: visible; cursor: default;"><text transform="" font-family="Noto Sans" text-anchor="middle" x="50%" font-weight="bold" font-size="18pt" y="75%" fill="#d86613">T3</text></svg></g></g><g><g class="cloud-maps_raptor_node" id="f34ca921-d9bf-40f2-a32a-c236a3d8ab29-0"><svg x="450" y="630" width="90" height="90"><path fill="#3b48cc" d="M0 0h90v90H0z"></path><path fill="#ffffff" d="M58.14 33.876c0-3.48-6.828-5.088-13.2-5.088s-13.2 1.608-13.2 5.088a1.848 1.848 0 0 0 .06.516v21.66c-.06 3.6 6.78 5.136 13.2 5.136s13.2-1.584 13.2-5.064V33.876ZM44.964 31.2c6.996 0 10.8 1.908 10.8 2.688 0 .78-3.78 2.688-10.8 2.688s-10.8-1.896-10.8-2.688c0-.792 3.804-2.688 10.8-2.688zm10.8 24.936c0 .768-3.792 2.664-10.8 2.664s-10.8-1.896-10.8-2.664v-3.792c2.532 1.38 6.78 2.04 10.8 2.04 4.02 0 8.232-.648 10.8-2.004zm0-6.828c0 .768-3.78 2.688-10.8 2.688s-10.8-1.92-10.8-2.688v-4.584c2.532 1.368 6.78 2.028 10.8 2.028 4.02 0 8.232-.648 10.8-2.004zm0-7.644c0 .78-3.78 2.7-10.8 2.7s-10.8-1.92-10.8-2.7v-4.68c2.556 1.356 6.756 1.98 10.8 1.98s8.292-.648 10.8-2.028zM19.092 72.612H27v2.4H16.2a1.2 1.2 0 0 1-1.2-1.2v-10.8h2.4v7.884l9-8.988 1.68 1.692ZM75 63.012v10.8a1.2 1.2 0 0 1-1.2 1.2H63v-2.4h7.908L62.04 63.72l1.692-1.68 8.868 8.856v-7.884zm0-46.8v10.8h-2.4v-7.92l-8.868 8.868-1.692-1.692 8.856-8.856H63v-2.4h10.8a1.2 1.2 0 0 1 1.2 1.2zM28.08 26.4l-1.68 1.68-9-8.988v7.896H15v-10.8a1.2 1.2 0 0 1 1.2-1.2H27v2.4h-7.908zm-1.488 29.352C19.26 53.112 15.06 49.08 15.06 44.7s4.2-8.4 11.532-11.052l.816 2.256c-6.228 2.244-9.948 5.532-9.948 8.796 0 3.264 3.72 6.552 9.948 8.796zm36.144.264-.768-2.28C68.628 51.492 72.6 48.108 72.6 44.7s-3.972-6.792-10.632-9.048l.768-2.268C70.524 36 75 40.152 75 44.7s-4.476 8.676-12.264 11.316z"></path></svg></g></g></g><g pointer-events="auto"></g><g pointer-events="auto"></g><g pointer-events="auto"><g><g class="cloud-maps_raptor_node" id="90a2c2f7-4692-4d84-be95-4e032d6841fb-0-label"><svg x="675" y="68" overflow="visible"><text stroke="#000000" stroke-width="2" font-family="Noto Sans" y="26.24" font-size="16pt" fill="#ffffff" font-weight="bold" transform="" text-anchor="middle" paint-order="stroke" xml:space="preserve"><tspan x="0" dy="0">AWS Simple Storage</tspan><tspan x="0" dy="1.1em"> Service (S3)</tspan></text></svg></g></g><g><g class="cloud-maps_raptor_node" id="f34ca921-d9bf-40f2-a32a-c236a3d8ab29-0-label"><svg x="495" y="720" overflow="visible"><text stroke="#000000" stroke-width="2" font-family="Noto Sans" y="26.24" font-size="16pt" fill="#ffffff" font-weight="bold" transform="" text-anchor="middle" paint-order="stroke" xml:space="preserve"><tspan x="0" dy="0">AWS RDS </tspan><tspan x="0" dy="1.1em">PostgreSQL</tspan></text></svg></g></g><g><g class="cloud-maps_raptor_node" id="55ce44ad-dbe8-44bb-84f3-137430e34f94-0-label"><svg x="45" y="-67" overflow="visible"><text stroke="#000000" stroke-width="2" font-family="Noto Sans" y="23.96" font-size="14pt" fill="#ffffff" font-weight="bold" transform="" text-anchor="middle" paint-order="stroke" xml:space="preserve"><tspan x="0" dy="0">AWS Elastic Beanstalk</tspan></text></svg></g></g><g><g class="cloud-maps_raptor_node" id="8a8a85a0-f9e0-4bf3-bb03-b414419bc766-0-label"><svg x="225" y="720" overflow="visible"><text stroke="#000000" stroke-width="2" font-family="Noto Sans" y="26.24" font-size="16pt" fill="#ffffff" font-weight="bold" transform="" text-anchor="middle" paint-order="stroke" xml:space="preserve"><tspan x="0" dy="0">EC2 Instance</tspan></text></svg></g></g></g></g></svg>